<svg version="1.2" xmlns="http://www.w3.org/2000/svg" viewBox="0 0 459 412" width="459" height="412">
	<style>
		.s0 { fill: #d99639 } 
		.s1 { fill: #f0cd92 } 
		.s2 { fill: #f87415 } 
		.s3 { fill: #fa9d17 } 
		.s4 { fill: #fac124 } 
	</style>
	<g>
		<path class="s0" d="m284 371.99c-0.96 0.62-38.5 0.98-103.68 0.99-91.57 0.02-102.34-0.14-103.75-1.55-1.26-1.26-1.57-4.03-1.57-13.94q0-0.79 0-1.52c-0.01-6.57-0.02-10.06 1.72-11.9 1.96-2.08 6.14-2.08 15.02-2.07q0.89 0 1.82 0h14.12l1.32-5.52c1.08-4.46 1.2-21.18 0.67-87.66-0.36-45.18-0.9-82.38-1.19-82.67-0.9-0.9-3.22 2.09-6.49 8.35-1.73 3.3-3.7 6.68-4.39 7.5-0.69 0.82-2.29 3.3-3.56 5.5-1.27 2.2-3.22 5.57-4.34 7.5-1.11 1.93-2.7 4.85-3.52 6.5-0.83 1.65-2.72 4.8-4.21 7-1.49 2.2-6.41 10.41-10.93 18.25-4.52 7.84-8.45 14.25-8.73 14.25-0.28 0 0.49-1.69 1.71-3.75 1.22-2.06 8.51-14.77 16.2-28.25 7.69-13.48 15.44-26.98 17.22-30 1.79-3.02 4.75-8.2 6.58-11.5 1.83-3.3 4.14-7.06 5.13-8.36 1.75-2.28 1.82 0.72 2.08 89.5 0.15 50.52 0.11 92.65-0.1 93.61-0.33 1.58-1.94 1.75-16.64 1.75-13.92 0-16.36 0.23-16.88 1.58-1.01 2.63-0.69 24.25 0.37 24.91 0.54 0.33 47.45 0.58 104.25 0.56 67.94-0.03 102.76 0.29 101.77 0.94zm175-371.99v412l-0.08-23.75c-0.07-22.05-0.17-23.32-1.39-17.75-3.93 18.06-17.97 29.96-44.96 38.11-7.83 2.36-8.42 2.39-51.25 2.39-40.35 0-50.16-0.63-39.07-2.51 2.34-0.4 20.83-0.91 41.09-1.14 30.3-0.35 36.76-0.66 36.33-1.76-0.75-1.97 1.32-3.59 4.6-3.59 2.36 0 2.76 0.34 2.26 1.89-0.55 1.75-0.34 1.81 2.82 0.72 1.88-0.64 4.18-1.81 5.12-2.58 1.34-1.12 2.09-1.16 3.6-0.22 2.67 1.67 3.74 1.51 6.97-1.06 4.86-3.86 8.42-6.25 9.46-6.34 3.26-0.31 6.85-2.96 10.43-7.7 2.24-2.96 4.07-5.91 4.07-6.55 0-0.64 0.44-1.16 0.98-1.16 0.53 0 1.71-1.12 2.61-2.49 1.84-2.82 1.19-8.02-0.87-6.96-0.67 0.34-0.23-0.2 0.98-1.21 3.23-2.71 4.44-6.65 3.15-10.33-0.59-1.69-0.83-3.99-0.53-5.12 0.29-1.13-0.11-3.87-0.89-6.1-0.79-2.22-1.41-5.22-1.39-6.67l0.04-2.62 1.43 2.62c0.78 1.44 2.06 6.17 2.85 10.5 1.26 6.97 1.43-12.93 1.53-171.37zm-176.04 210.44c-8.74 1.99-11.86 1.98-12.64-0.06-0.35-0.89-0.67-17.97-0.72-37.96-0.06-19.98 0.21-35.57 0.58-34.63 0.37 0.94 0.71 16.86 0.75 35.38 0.04 18.52 0.34 34.38 0.68 35.25 0.72 1.87 3.78 1.93 11.39 0.21 8.13-1.83 19.56-9.29 23.58-15.37 6.38-9.66 7.84-15.06 7.79-28.76-0.04-9.61-2.31-17.1-7.51-24.76-2.34-3.43-13.65-12.55-19.78-15.94-3.24-1.8-4.5-4.56-1.33-2.91 0.96 0.5 3.96 1.97 6.66 3.26 7.41 3.55 15.71 12.15 20.07 20.81 4.39 8.73 5.55 18.27 3.59 29.62-1.46 8.44-6.76 19.8-11.25 24.11-5.4 5.18-14.53 10.08-21.86 11.75zm-10.12 86.31c-2.1 5.57-2.14 5.62-3.17 4.58-0.84-0.83-0.89-80.58-0.06-82.75 0.74-1.94 12.32-2.2 20.59-0.47 15.83 3.31 28.66 16.51 33.44 34.39 1.6 5.97 1.85 14.81 0.36 12.5-0.53-0.83-0.98-3.17-0.98-5.21-0.02-4.13-3.66-14.79-5.05-14.79-0.49 0-1.38-1.83-1.99-4.06-1.14-4.25-7.27-11.94-9.52-11.94-0.72 0-2.58-1.07-4.14-2.39-4.95-4.16-14.6-7.61-21.29-7.61q-0.66 0-1.26-0.01c-2.45-0.02-4.18-0.03-5.42 0.74-3.23 2.02-3.15 9.34-3.63 35.69-0.33 18-0.25 33.67 0.17 34.8 0.75 2.05 0.78 2.05 3.08-0.32q0.27-0.27 0.49-0.51c0.72-0.75 1.17-1.22 1.31-1.14 0.24 0.14-0.42 1.88-2.21 6.61q-0.33 0.88-0.72 1.89zm-61.82-62c-0.01 23.63-0.36 35.25-1.06 35.25-0.7 0-0.94-11.83-0.75-36.57 0.26-32.14 0.48-36.68 1.87-37.46 0.88-0.49 2.89-2.82 4.49-5.18 1.6-2.36 4.71-6.09 6.92-8.29 2.21-2.2 7.84-8.44 12.51-13.87 8.03-9.33 15.5-17.63 26.18-29.09 2.57-2.76 4.89-4.8 5.15-4.53 0.27 0.27-8.81 11.14-20.17 24.15-11.37 13.01-23.91 27.41-27.89 32l-7.23 8.34zm-7.02 108.28l20.5 0.53-20.58 0.22c-11.32 0.12-20.89-0.08-21.25-0.45-0.37-0.36-0.67-6.42-0.67-13.47 0-10.55 0.25-12.7 1.4-12.26 0.77 0.29 1.69 0.06 2.06-0.53 0.4-0.65 4.9-1.07 11.54-1.07 7.61 0 11.13-0.38 11.69-1.25 0.45-0.69 1.06-7.1 1.37-14.25l0.55-13 0.2 14.75 0.19 14.75h-25v6h34.94c19.73 0 35.19 0.39 35.5 0.9 0.58 0.94-8.21 9.89-11.23 11.44-0.94 0.49 0.43-1.16 3.04-3.65 2.61-2.49 4.75-4.97 4.75-5.5 0-1.68-7.76-2.14-37-2.15-15.68-0.01-29.53-0.22-30.79-0.48-2.27-0.46-2.28-0.4-2 9.24l0.29 9.7zm-20.7-196.53c0.3 44.55 0.21 100.35-0.2 124-0.17 10.18-0.31 15.66-0.43 15.66-0.26 0-0.39-29.16-0.49-97.08-0.1-68.29-0.01-124 0.2-124 0.2 0.23 0.62 36.87 0.92 81.42zm194.94 93.97c1.36 2.43 0.67 1.85-6.37-5.26-8.44-8.55-15.57-12.81-28.96-17.31l-10.71-3.6 4.65-2.24c10.09-4.86 21.27-14.2 25.86-21.6 1.19-1.92 1.26-1.91 3.25 0.4 2.67 3.09 2.6 4.51-0.14 3.04-1.98-1.06-2.75-0.56-8.25 5.31-3.34 3.56-8.09 7.77-10.57 9.37-4.5 2.9-5.96 4.28-5.98 5.65-0.02 0.94 6.66 4.29 10.33 5.17 1.57 0.38 4.04 1.5 5.5 2.49 1.46 0.99 4.57 3.06 6.92 4.6 4.28 2.82 12.86 11.1 14.47 13.98zm-84.24 74.36c-2.19 1.37-7.48 2.35-8.3 1.54-0.38-0.39-0.71-14.47-0.73-31.29-0.03-32.24-0.63-35.24-3.58-18.04-1.66 9.64-5.78 22.86-4.98 15.96 0.22-1.92 0.93-5.3 1.58-7.5 0.65-2.2 1.6-7.1 2.13-10.88 0.55-3.99 1.74-7.9 2.83-9.29l1.89-2.4 0.83 2.28c0.46 1.26 0.71 14.34 0.56 29.08-0.17 17.6 0.11 27.47 0.81 28.78 0.88 1.64 1.73 1.89 4.76 1.41 2.51-0.4 3.22-0.29 2.2 0.35zm26-198.22c0 0.85-1.06 1.38-2.75 1.37-1.97-0.01-2.36-0.26-1.36-0.89 0.93-0.59 1.17-1.8 0.73-3.73l-0.65-2.86 2.01 2.36c1.11 1.3 2.02 2.99 2.02 3.75zm91.05 284.3c-0.62 1.15-1.67 2.05-2.34 2.01-0.9-0.06-0.89-0.21 0.05-0.58 0.69-0.28 1.05-0.83 0.81-1.22-0.62-1.01 1.18-3.7 1.96-2.93 0.35 0.35 0.13 1.58-0.48 2.72z"/>
		<path class="s1" d="m0 0h459l-114.25 0.08c-99.54 0.07-113.86 0.27-111.25 1.5l3 1.43-4-0.76c-2.2-0.41-7.15-0.63-11-0.48-4.94 0.19-6.56-0.03-5.5-0.74 1.01-0.67-34.16-1-107.25-1.01l-108.75-0.02 0.1 181.25c0.05 98.85 0.45 178.77 0.89 178.77q0 0 0.01-0.02c0.54-1.68 0.84 0.44 0.91 6.5 0.07 4.95 0.34 10.12 0.62 11.5 0.31 1.58-0.03 1.21-0.94-1-1.33-3.23-1.44-1.99-1.51 15.75l-0.08 19.25zm296.73 126.71q-2.18-1.53-4.32-2.56c-2.7-1.29-5.7-2.76-6.66-3.26-0.85-0.44-1.39-0.57-1.65-0.48-0.43-1.3-0.04-2.41 1.4-2.41 0.83 0 1.39 0.54 1.25 1.2-0.14 0.65 2.45 2.79 5.75 4.74q2.19 1.3 4.23 2.77zm-19.07 155.51c1.17-3.54 2.82-9.89 3.73-15.18 2.76-16.09 3.46-14.5 3.57 12.15-0.12-11.3-0.46-18.38-0.93-18.67-1.03-0.64-1.19-0.12-3.48 10.98-0.76 3.69-2.04 8.4-2.89 10.72zm38.77-125.05c-0.68-4.29-2-8.33-3.95-12.21-2.82-5.6-7.29-11.18-12.1-15.39 8.76 7.52 14.54 17.36 16.05 27.6zm-40.02 125.83c0.16-1.44 0.61-3.7 1.09-5.67-0.48 1.97-0.92 4.23-1.09 5.67-0.23 1.99-0.05 2.3 0.36 1.52l-0.77 1.98zm8.62 13.57c0.12 11.3 0.38 19.51 0.67 19.8-0.31-0.31-0.58-8.66-0.67-19.8z"/>
		<path class="s2" d="m284 371.99c0.99-0.65-33.83-0.97-101.77-0.94q-5.17 0-10.22 0 5.43-0.03 10.99-0.05l102.5-0.5 1-46 24-0.58c25.01-0.61 26.55-0.84 40.5-6.19 23.81-9.13 37.89-29.86 35.48-52.23-1.31-12.15-4.12-19.07-11.48-27.14 4.09 4.07 4.36 4.11 3.24 2.11-1.61-2.88-10.19-11.16-14.47-13.98-2.35-1.54-5.46-3.61-6.92-4.6-1.46-0.99-3.93-2.11-5.5-2.49-0.61-0.14-1.31-0.36-2.04-0.62 0.44-0.18-0.13-1.17-1.56-3.03-2.52-3.26-5.74-4.28-6.48-2.06-0.16 0.48 0.61 1.37 1.84 2.25-1.26-0.73-2.1-1.37-2.09-1.71 0.02-1.37 1.48-2.75 5.98-5.65 2.48-1.6 7.23-5.81 10.57-9.37 2.09-2.24 3.5-3.69 4.55-4.58q-0.19 0.36 0.08 0.37c0.32 0 0.03 2.14-0.66 4.75-0.69 2.61-1.66 4.68-2.15 4.6-0.49-0.09-1.47 0.47-2.18 1.25-0.74 0.81-0.85 1.4-0.25 1.4 1.94 0 1.05 1.67-1.52 2.84-3.03 1.38-2.36 3.16 1.19 3.16 1.85 0 2.43-0.46 2.18-1.74q-0.32-1.75 4.51-5.07l4.84-3.34 3.44 2.33c4.04 2.73 14.08 17.71 27.95 41.69 1.07 1.86 3.89 6.05 6.25 9.33 2.37 3.27 4.71 7.02 5.21 8.32 0.49 1.3 2.72 5.03 4.94 8.3 2.23 3.26 4.05 6.24 4.05 6.62 0 0.39 1.35 2.66 3 5.06 1.65 2.4 3 4.74 3 5.2 0 0.47 1.58 3.24 3.5 6.16 1.92 2.92 3.5 5.54 3.5 5.82 0 0.28 2.02 3.53 4.5 7.22 2.48 3.69 4.5 7.06 4.5 7.5 0 0.43 0.84 1.99 1.87 3.45 2.98 4.21 6.49 11.11 9.21 17.67l-0.04 2.6c-0.02 1.45 0.6 4.45 1.39 6.67 0.78 2.23 1.18 4.97 0.89 6.1-0.3 1.13-0.06 3.43 0.53 5.12 1.29 3.68 0.08 7.62-3.15 10.33-1.21 1.01-1.65 1.55-0.98 1.21 2.06-1.06 2.71 4.14 0.87 6.96-0.9 1.37-2.08 2.49-2.61 2.49-0.54 0-0.98 0.52-0.98 1.16 0 0.64-1.83 3.59-4.07 6.55-3.58 4.74-7.17 7.39-10.43 7.7-1.04 0.09-4.6 2.48-9.46 6.34-3.23 2.57-4.3 2.73-6.97 1.06-1.51-0.94-2.26-0.9-3.6 0.22-0.4 0.33-1.03 0.72-1.78 1.12 0.59-0.36 0.99-0.69 1.07-0.92 0.46-1.38-1.79-2.05-2.79-1.18q0.04-0.06 0.08-0.14c0.61-1.14 0.83-2.37 0.48-2.72-0.42-0.42-1.15 0.19-1.62 0.99q0.04-0.09 0.1-0.19c0.83-1.57 0.61-3.07-1.02-6.75-2.31-5.21-9.48-17.94-14.52-25.74-1.77-2.75-4.9-8.08-6.95-11.84-2.85-5.24-4.53-7.18-7.14-8.28-1.89-0.78-4.32-2.32-5.4-3.4-1.09-1.09-2.4-1.98-2.91-1.98-1.51 0-6.78 6.95-10.61 13.96-5.1 9.37-10.52 17.42-20.51 30.48-7.8 10.2-22.47 23.56-25.88 23.56-1.14 0-2.07 0.46-2.07 1.02 0 0.55-1.35 0.91-3 0.78-1.65-0.12-3-0.58-3-1.01 0-0.44-2.92-0.79-6.48-0.79-6.1 0-6.52-0.15-7.12-2.52-0.34-1.39-1.56-3.18-2.7-3.98-1.84-1.29-1.92-1.72-0.75-3.91 0.79-1.48 1.07-3.74 0.69-5.62-0.52-2.63-0.12-3.65 2.51-6.28 1.73-1.72 3.45-4.27 3.82-5.66 0.38-1.42 1.52-2.65 2.6-2.81 1.06-0.16 3.87-0.79 6.25-1.4 3.81-0.99 4.14-1.29 2.83-2.6-1.1-1.1-11.71-1.38-75.5-1.35 32.27-0.15 50.19-0.45 50.85-0.88zm14-59.27q-1.93 0.95-3.55 1.68-0.01-0.35-2.65 0.08c-3.03 0.48-3.88 0.23-4.76-1.41-0.7-1.31-0.98-11.18-0.81-28.78 0.14-13.61-0.07-25.81-0.46-28.59q0.61 1.25 1.56 0.49c1-0.79 7.63-1.32 20.17-1.61 4.08-0.1 5.34-2 4.46-6.8-0.49-2.67-0.34-4.08 0.45-4.38 1.84-0.71 1.65-4.3-0.28-5.33-0.96-0.51-2.6-2.7-3.65-4.86-0.79-1.63-2.24-3.53-3.59-4.81 0.67 0.37 1.24 0.6 1.57 0.6 2.25 0 8.38 7.69 9.52 11.94 0.61 2.23 1.5 4.06 1.99 4.06 1.39 0 5.03 10.66 5.05 14.79 0 2.04 0.45 4.38 0.98 5.21 0.38 0.58 0.64 0.45 0.8-0.16-0.27 10.46-2.72 22.97-5.92 27.04-1.03 1.31-1.88 3.01-1.88 3.77 0 2.67-12.38 13.79-19 17.07zm-86.98-77.97l0.02-35.25-0.04 117.5-0.19-14.75-0.2-14.75-0.55 13c-0.31 7.15-0.92 13.56-1.37 14.25-0.56 0.87-4.08 1.25-11.69 1.25-6.64 0-11.14 0.42-11.54 1.07-0.37 0.59-1.29 0.82-2.06 0.53-0.55-0.21-0.89 0.17-1.1 1.77-0.18-25.2-0.3-67.78-0.3-115.7 0-61.11 0.11-113.22 0.26-131.56-0.12 17.03-0.16 63.09-0.08 116.97 0.1 67.92 0.23 97.08 0.49 97.08 0.12 0 0.26-5.48 0.43-15.66 0.41-23.65 0.5-79.45 0.2-124-0.3-44.42-0.71-80.98-0.92-81.41q0-0.01 0-0.01c0.21 0.23 0.7 39.27 1.08 86.76l0.7 86.34 2.9 6.46c1.6 3.56 3.48 7.01 4.17 7.66 1.41 1.33 9.6 1.64 11.46 0.43 0.65-0.42 2.21-3.35 3.46-6.5 2.06-5.16 2.34-7.91 2.82-27.55 0.45-18.51 0.77-21.96 2.11-22.71 0.46-0.25 1.21-1 2.06-1.98-0.85 0.98-1.6 1.73-2.06 1.98-1.39 0.78-1.61 5.32-1.87 37.46-0.19 24.74 0.05 36.57 0.75 36.57 0.7 0 1.05-11.62 1.06-35.25zm-7.02 108.28l-20.5-0.53-0.29-9.7c-0.28-9.64-0.27-9.7 2-9.24 1.26 0.26 15.11 0.47 30.79 0.48 29.24 0.01 37 0.47 37 2.15 0 0.53-2.14 3.01-4.75 5.5-2.17 2.07-3.48 3.56-3.32 3.72q-0.86 0.59-1.62 1.02c-3.91 2.23-11.13 4.98-17.31 6.6-0.66 0.18-2.25 0.33-4.46 0.46zm-94.85-144.84c0.18 14.03 0.37 31.62 0.52 50.63 0.38 47.81 0.42 69.89 0.02 80.17-0.12-0.73-0.31-1.48-0.56-2.33-2.34-7.86-3.18-13.19-4.11-26.16-1.11-15.24-2.34-23.33-4.47-29.38-2.8-7.91-1.04-29.51 2.5-30.64 1.46-0.46 2.5-2.83 4.48-10.23 0.33-1.24 0.91-2.25 1.29-2.25 0.35 0 0.43-14.72 0.33-29.81zm168.51 84.03c0.85-2.32 2.13-7.03 2.89-10.72q0.43-2.09 0.77-3.69-0.17 0.79-0.33 1.69c-1.06 5.54-3.11 12.81-5.18 19.01q0.03-0.22-0.04-0.26c-0.14-0.08-0.59 0.39-1.31 1.14q-0.22 0.24-0.49 0.51c-2.3 2.37-2.33 2.37-3.08 0.32-0.42-1.13-0.5-16.8-0.17-34.8 0.17-9.08 0.27-15.9 0.46-21.02 0.27 8.59 0.68 10.79 2.23 12.5 1.05 1.16 2.14 1.89 2.41 1.61 0.28-0.27 1.13 0.41 1.91 1.51 0.77 1.11 1.83 1.75 2.34 1.44 0.51-0.32 0.94 0.91 0.96 2.73l0.04 3.31 1.89-2.27q0.57-0.69 0.94-1.1l-0.95 1.2c-1.09 1.39-2.28 5.3-2.83 9.29-0.53 3.78-1.48 8.68-2.13 10.88q-0.25 0.83-0.49 1.83c-0.48 1.97-0.93 4.23-1.09 5.67l-0.41 3.5 0.77-1.98c0.23-0.45 0.54-1.25 0.89-2.3zm24.41-55.81c-4.94-3.03-9.59-5.15-10.59-4.76-0.61 0.23-2.43-0.27-4.05-1.11-1.79-0.93-4.1-1.44-6.38-1.54 6.57 0.01 16 3.34 21.02 7.41zm9.93 28.01c0 0.87 0.71 1.58 1.58 1.58 1.77 0 1.46-2.15-0.39-2.77-0.66-0.22-1.19 0.32-1.19 1.19zm-129.33 88.91c0.36 0.37 9.93 0.57 21.25 0.45l14.8-0.16c-12.31 0.52-35.27 0.5-36.05-0.29zm-31.31 29.65c-66.09 0.05-73.47-0.23-74.73-1.49q-0.02-0.03-0.04-0.04c1.31 1.22 10.1 1.49 74.77 1.53zm117.65-111.11c-0.08-20.67 0.09-41.97 0.6-43.29-0.43 1.11-0.62 22.52-0.6 43.29zm10.54-42.88c-2.54 0.09-4.89 0.68-6.26 1.76q0.46-0.65 1.06-1.02c1.2-0.75 2.87-0.76 5.2-0.74zm-202.55 138.38c-0.04-5.36 0.14-10.58 0.61-11.79-0.32 0.82-0.58 5.99-0.61 11.79zm175.27-28.08c2.46-2.51 4.46-4.92 4.17-5.39 0.35 0.57-1.55 2.87-4.17 5.39zm158.32 72.33c-0.32 0.77-1.12 1.37-1.81 1.36q-0.5 0-0.6-0.13 0.18 0.05 0.53 0.07c0.53 0.03 1.28-0.51 1.88-1.3zm-124.87-85.24c0.37 0.35 1.6 0.36 3.04 0.14q-2.35 0.57-3.04-0.13zm122.57 86.17q0.2-0.22 0.71-0.55 0.39-0.26 0.63-0.47c-0.09 0.3-0.41 0.62-0.87 0.81q-0.3 0.11-0.47 0.21zm48.98-52.42q0.05 0.25 0.09 0.49c1.08 5.99 1.36-7.88 1.48-112.55-0.12 105.38-0.4 118.56-1.5 112.45q-0.03-0.19-0.07-0.39zm-378.85 20.41q-0.4-0.03-0.44-0.05-0.18-0.13-0.33-0.96c0.2 0.49 0.45 0.79 0.77 1.01zm206.04-107.44c0.25 3.06 0.42 8.66 0.5 16.09q0 0.32 0 0.64c-0.08-7.54-0.26-13.52-0.5-16.73zm39.98-6.72c-0.21-1.33-0.48-2.67-0.8-3.88-1.03-3.86-2.44-7.51-4.17-10.88 1.96 3.79 3.49 7.92 4.53 12.29q0.27 1.14 0.44 2.47zm-216.05-90.3q0.05 0.03 0.09 0.07c0.04 0.04 0.09 0.91 0.15 2.5-0.08-1.51-0.15-2.42-0.24-2.57zm174.55 95.03c0.36-0.92 0.65-0.87 1.09-0.59q0 0 0.01 0c-0.43-0.25-0.76-0.17-1.1 0.59zm-207.25 108.66c-0.54-1.85-0.69-5.23-0.69-12.28 0 6.98 0.15 10.42 0.69 12.28zm30.3-201.96c-1.09 1.46-2.46 3.74-4 6.69 1.57-3.01 2.92-5.26 4-6.69zm259.36 25.86q0.22 0.11 0.47 0.23c1.5 0.81 2.2 0.74 2.09 0.01 0.11 0.73-0.56 0.81-2.02 0.03q-0.29-0.15-0.54-0.27zm44 210.94c-2.14 0.74-2.93 0.95-3.04 0.46 0.11 0.48 0.91 0.27 3.12-0.48q-0.04 0.01-0.08 0.02z"/>
		<path class="s3" d="m109.15 198.19c0.1 15.09 0.02 29.81-0.33 29.81-0.38 0-0.96 1.01-1.29 2.25-1.98 7.4-3.02 9.77-4.48 10.23-3.54 1.13-5.3 22.73-2.5 30.64 2.13 6.05 3.36 14.14 4.47 29.38 0.93 12.97 1.77 18.3 4.11 26.16 0.25 0.85 0.44 1.6 0.56 2.33-0.16 4.02-0.38 6.24-0.69 7.49l-1.32 5.52h-14.12q-0.83 0-1.61 0h-0.21-0.02c-8.87-0.01-13.04-0.01-15 2.07-1.63 1.73-1.72 4.92-1.72 10.75q0 0.55 0 1.15v0.14q0 0.66 0 1.38c0 6.97 0.15 10.41 0.69 12.28 0.22 0.78 0.51 1.29 0.88 1.66q0.01 0 0.02 0.02 0.02 0.01 0.04 0.04c1.26 1.26 8.64 1.54 74.72 1.49h0.01c8.62 0.01 18.24 0.01 28.96 0 20.41 0 38.11-0.04 52.83-0.11 63.79-0.03 74.4 0.25 75.5 1.35 1.31 1.31 0.98 1.61-2.83 2.6-2.38 0.61-5.19 1.24-6.25 1.4-1.08 0.16-2.22 1.39-2.6 2.81-0.37 1.39-2.09 3.94-3.82 5.66-2.63 2.63-3.03 3.65-2.51 6.28 0.38 1.88 0.1 4.14-0.69 5.62-1.17 2.19-1.09 2.62 0.75 3.91 1.14 0.8 2.36 2.59 2.7 3.98 0.6 2.37 1.02 2.52 7.12 2.52 3.56 0 6.48 0.35 6.48 0.79 0 0.43 1.35 0.89 3 1.01 1.65 0.13 3-0.23 3-0.78 0-0.56 0.93-1.02 2.07-1.02 3.41 0 18.08-13.36 25.88-23.56 9.99-13.06 15.41-21.11 20.51-30.48 3.83-7.01 9.1-13.96 10.61-13.96 0.51 0 1.82 0.89 2.91 1.98 1.08 1.08 3.51 2.62 5.4 3.4 2.61 1.1 4.29 3.04 7.14 8.28 2.05 3.76 5.18 9.09 6.95 11.84 5.04 7.8 12.21 20.53 14.52 25.74 1.63 3.68 1.85 5.18 1.02 6.75q-0.06 0.1-0.1 0.19c-0.4 0.67-0.62 1.48-0.34 1.94q0.11 0.19 0.06 0.41-0.24 0.21-0.63 0.47-0.51 0.33-0.71 0.55-0.43 0.22-0.11 0.3 0.1 0.13 0.6 0.13c0.69 0.01 1.49-0.59 1.81-1.36q0.21-0.27 0.38-0.57c1-0.87 3.25-0.2 2.79 1.18-0.08 0.23-0.48 0.56-1.07 0.92-1 0.53-2.2 1.06-3.26 1.44h-0.01c-2.2 0.75-3 0.96-3.11 0.48-0.05-0.23 0.04-0.61 0.22-1.18 0.5-1.55 0.1-1.89-2.26-1.89-3.28 0-5.35 1.62-4.6 3.59 0.43 1.1-6.03 1.41-36.33 1.76-20.26 0.23-38.75 0.74-41.09 1.14-10.31 1.75-2.55 2.42 31.01 2.5h-27.09c-43.16-0.01-78.71 0.22-78.99 0.5-0.28 0.28 47.26 0.51 105.65 0.51h-275.83c65.15 0 77-0.21 77-1.39 0-0.77-0.71-1.67-1.59-2.01-1.35-0.51-1.2-1.07 1-3.68 1.43-1.69 2.59-3.73 2.59-4.53 0-0.8 0.68-1.71 1.5-2.03 1.01-0.39 1.5-1.97 1.5-4.88 0-3.47 0.53-4.75 2.77-6.64 2.96-2.5 3.86-6.09 1.91-7.66-2.83-2.3-14.16-3.39-37.06-3.57-16.27-0.13-25.04-0.58-26.94-1.4-1.54-0.67-7.02-1.21-12.17-1.21-6.84 0-9.76-0.39-10.81-1.45-0.87-0.87-4.59-1.71-9.33-2.12-9.43-0.8-27.08-6.22-33.48-10.28-10.58-6.72-12.02-16.34-2.78-18.65 1.85-0.46 3.25-2.01 4.8-5.32 2.82-6.04 3.21-9.97 1.35-13.61-1.45-2.84-1.39-13.98 0.12-20.43 0.34-1.45-0.07-2.97-1.05-3.95q-1.6-1.61-0.46-1.98c0.63-0.21 0.89-0.78 0.59-1.27-0.3-0.5-0.02-1.9 0.64-3.12 0.8-1.51 0.85-2.34 0.13-2.58-0.97-0.32 1.78-5.57 18.65-35.67 3.36-6 6.12-11.11 6.12-11.34q0.01-0.06 0.33-0.68-0.15 0.44-0.02 0.45c0.28 0 4.21-6.41 8.73-14.25 4.52-7.84 9.44-16.05 10.93-18.25 1.49-2.2 3.38-5.35 4.21-7 0.82-1.65 2.41-4.57 3.52-6.5 1.12-1.93 3.07-5.3 4.34-7.5 1.27-2.2 2.87-4.68 3.56-5.5 0.69-0.82 2.66-4.2 4.39-7.5 1.54-2.95 2.91-5.23 4-6.69 1.1-1.45 1.92-2.06 2.4-1.73 0.09 0.15 0.16 1.06 0.24 2.57 0.15 4.59 0.33 15.2 0.52 29.54zm74.15-65.28c0.11 7.31 0.25 11.69 0.39 11.34 0.92-2.41 2.08-1.21 3.23 3.34 1.48 5.88 4.02 9.87 5.39 8.5 0.69-0.69 1.37-0.55 2.11 0.42 0.88 1.18 4.67 1.45 20.08 1.43 19.92-0.01 22.39-0.13 24.07-1.17 1.75-1.08 3.78 0.86 3.01 2.88-0.38 1.02 2.81-1.97 7.11-6.64 4.8-5.22 8.3-9 10.85-11.71-9.82 10.56-16.93 18.48-24.54 27.33-4.67 5.43-10.3 11.67-12.51 13.87-2.21 2.2-5.32 5.93-6.92 8.29-0.6 0.89-1.26 1.77-1.89 2.55q-0.27 0.33-0.54 0.65c-0.85 0.98-1.6 1.73-2.06 1.98-1.34 0.75-1.66 4.2-2.11 22.71-0.48 19.64-0.76 22.39-2.82 27.55-1.25 3.15-2.81 6.08-3.46 6.5-1.86 1.21-10.05 0.9-11.46-0.43-0.69-0.65-2.57-4.1-4.17-7.66l-2.9-6.46-0.7-86.34c-0.05-6.49-0.1-12.83-0.16-18.93zm107.12-7.05c6.23 4.14 14.48 11 16.44 13.88 5.2 7.66 7.47 15.15 7.51 24.76 0.05 13.7-1.41 19.1-7.79 28.76-4.02 6.08-15.45 13.54-23.58 15.37-7.61 1.72-10.67 1.66-11.39-0.21-0.34-0.87-0.64-16.73-0.68-35.25-0.04-18.52-0.38-34.44-0.75-35.38-0.36-0.9-0.62 13.43-0.59 32.27-0.09-17.43-0.04-33.84 0.26-33.54 0.19 0.19 0.64 2.64 1 5.45 0.36 2.8 1.02 4.97 1.48 4.81 0.45-0.15 1.98 2.2 3.38 5.22 1.41 3.02 2.73 5.05 2.93 4.5 0.44-1.22 20.64-0.82 24.61 0.49 2.7 0.89 2.75 0.84 2.75-3.25 0-6.8-3.88-15.48-8.75-19.58-2.34-1.97-4.25-4.35-4.25-5.3 0-0.74-1.03-1.9-2.58-3zm11.65 100.55q0.12 0.09 0.25 0.2c0.84 0.71 1.77 1.35 2.57 1.79 1.35 1.28 2.8 3.18 3.59 4.81 1.05 2.16 2.69 4.35 3.65 4.86 1.93 1.03 2.12 4.62 0.28 5.33-0.79 0.3-0.94 1.71-0.45 4.38 0.88 4.8-0.38 6.7-4.46 6.8-12.54 0.29-19.17 0.82-20.17 1.61q-0.95 0.76-1.56-0.49-0.04-0.33-0.1-0.49l-0.83-2.28-0.94 1.2q-0.37 0.41-0.94 1.1l-1.89 2.27-0.04-3.31c-0.02-1.82-0.45-3.05-0.96-2.73-0.51 0.31-1.57-0.33-2.34-1.44-0.78-1.1-1.63-1.78-1.91-1.51-0.27 0.28-1.36-0.45-2.41-1.61-1.55-1.71-1.96-3.91-2.23-12.5 0.29-7.9 0.8-11.77 2.11-13.65 1.37-1.08 3.72-1.67 6.26-1.76h0.22q0.6 0.01 1.26 0.01h0.02c2.28 0.1 4.59 0.61 6.38 1.54 1.62 0.84 3.44 1.34 4.05 1.11 1-0.39 5.65 1.73 10.59 4.76zm63.28-32.74q0.25 0.12 0.54 0.27c1.4 0.75 2.08 0.71 2.03 0.06 2.71 4.44 6.27 10.77 7.27 13.17 0.33 0.81 3.18 5.44 6.63 10.78-4.72-7.02-8.21-11.41-10.22-12.77l-3.44-2.33-4.84 3.34q-4.83 3.32-4.51 5.07c0.25 1.28-0.33 1.74-2.18 1.74-3.55 0-4.22-1.78-1.19-3.16 2.57-1.17 3.46-2.84 1.52-2.84-0.6 0-0.49-0.59 0.25-1.4 0.71-0.78 1.69-1.34 2.18-1.25 0.49 0.08 1.46-1.99 2.15-4.6 0.69-2.61 0.98-4.75 0.66-4.75q-0.27-0.01-0.08-0.37c1.48-1.25 2.25-1.37 3.23-0.96zm-16.04 25.11c-2.1-0.75-4.52-1.87-6.2-2.84-1.23-0.88-2-1.77-1.84-2.25 0.74-2.22 3.96-1.2 6.48 2.06 1.43 1.86 2 2.85 1.56 3.03zm-101.65-66.61c-1.28 2.05-1.61 2.15-3.46 0.98-1.06-0.68-1.06-1.01 0-1.85 0.72-0.57 2.04-1.01 2.95-1 1.36 0.03 1.45 0.37 0.51 1.87zm-65.23-86.41q0.02-0.61 0.05-0.61c0.26 0.26 0.53 18.45 0.6 40.41q0.01 4.28 0.04 8.29c-0.27-25.7-0.53-44.38-0.69-48.09zm129.57 188.66c0-0.87 0.53-1.41 1.19-1.19 1.85 0.62 2.16 2.77 0.39 2.77-0.87 0-1.58-0.71-1.58-1.58zm64.41 156.57c28.03-0.04 29.38-0.34 36.16-2.38l-7.91 2.39zm-267.79-251.1c-1.14 1.67-3.05 4.81-4.6 7.61-1.83 3.3-4.79 8.48-6.58 11.5q-0.2 0.34-0.5 0.85c1.67-2.94 3.51-6.18 5.58-9.85 2.92-5.16 4.84-9.58 6.1-10.11zm2.21 14.11c0.35 12.91 0.29 35.99 0.4 74.64-0.12-39.49-0.2-62-0.4-74.64zm300.17 90.5c-0.35-0.91-1.56-2.95-3.05-5.19 1.71 2.31 3.05 4.57 3.05 5.19zm12.29 20.42q-0.14-0.21-0.29-0.42c-1.58-2.3-2.89-4.49-2.99-5 1.08 1.89 2.33 3.96 3.28 5.42zm-27.77-44.95q-3.18-5.39-6.03-10.01c2.05 3.28 3.85 6.23 4.89 8.04q0.58 1.01 1.14 1.97zm30.48 49.71c0 0.47 1.58 3.26 3.5 6.18-1.92-2.92-3.5-5.69-3.5-6.16 0-0.37-0.9-2-2.12-3.89q0.12 0.19 0.24 0.34c1.03 1.46 1.88 3.05 1.88 3.53zm-62.83-99.93q-0.2 0.29-0.46 0.71-0.93 1.5-2.2 3.09 1.24-1.59 2.05-3.02 0.27-0.46 0.61-0.78zm53.59 84.27q-0.39-0.6-0.81-1.2c-0.65-0.96-1.3-1.95-1.91-2.92 0.78 1.1 1.76 2.58 2.72 4.12zm-63.22-73.27c-5 4.43-11.02 8.58-16.69 11.31 5.6-2.7 11.71-6.92 16.69-11.31zm-68.08-82.75c-1.14 0.02-1.6 0.74-1.51 1.71-0.23-1 0.19-1.71 1.48-1.71q0.01 0 0.03 0zm80.28 72.6c-0.62-0.71-1.04-1.17-1.37-1.39q0.2 0.02 0.35 0.12c0.17 0.1 0.53 0.56 1.02 1.27zm35.73 59.32c-0.82-1.24-1.5-2.32-1.92-3.05q-0.68-1.17-1.35-2.32c1.2 2.01 2.27 3.78 3.27 5.37zm-137.92-112.79c1.96-1.96 2.57-2.34 2.78-2.12-0.17-0.18-1.29 0.69-2.78 2.12zm23.98-13.08q0.83 0.48 1.76 1.07-0.27-0.16-0.54-0.31-0.65-0.36-1.22-0.76z"/>
		<path class="s4" d="m183.3 132.91c-0.06-6.67-0.12-13.06-0.18-19.06q-0.03-4.01-0.04-8.29c-0.07-21.96-0.34-40.15-0.6-40.41q-0.03 0-0.05 0.61-0.02-0.65-0.05-0.68 0 0 0 0.01 0-0.01 0-0.01c-0.05 0-0.09 2.48-0.12 7.03v0.01c-0.15 18.07-0.26 68.93-0.26 128.88l-0.5-142.5-6.75-0.3c-3.86-0.16-6.75-0.74-6.75-1.34 0-1.3 4.24-9.14 12.32-22.8 7.6-12.85 19.22-25 27.33-28.59q1.24-0.54 2.36-1.01c2.72-1.16 4.73-2.02 4.66-2.65-0.06-0.6-2-1.01-6.98-1.28q8.76 0.21 8.31 0.5c-1.06 0.71 0.56 0.93 5.5 0.74 3.85-0.15 8.8 0.07 11 0.48l4 0.76-2.45-1.17q0.8 0.33 1.7 0.66c11.1 4.15 22.64 14.81 33.03 30.5 5.2 7.84 9.59 14.92 28.64 46.16 10.3 16.9 13.23 21.64 18.1 29.34 1.15 1.8 2.19 3.58 2.99 5.02q-0.26-0.34-0.53-0.66l-2.01-2.36 0.65 2.86c0.44 1.93 0.2 3.14-0.73 3.73q-0.81 0.51-0.37 0.71c-2.65 0.2-6.63 0.33-12.27 0.43-9.34 0.15-15.4 0.56-16.5 1.09q-0.02-0.07 0-0.12c0.14-0.66-0.42-1.2-1.25-1.2q-0.07 0-0.07 0c-1.29 0-1.71 0.71-1.48 1.71q0.03 0.34 0.15 0.7c-0.7 0.25 0.61 2.08 2.98 3.39q0.23 0.12 0.45 0.25 0.57 0.4 1.22 0.76 0.27 0.15 0.54 0.31 0.55 0.35 1.13 0.74c1.55 1.1 2.58 2.26 2.58 3 0 0.95 1.91 3.33 4.25 5.3 4.87 4.1 8.75 12.78 8.75 19.58 0 4.09-0.05 4.14-2.75 3.25-3.97-1.31-24.17-1.71-24.61-0.49-0.2 0.55-1.52-1.48-2.93-4.5-1.4-3.02-2.93-5.37-3.38-5.22-0.46 0.16-1.12-2.01-1.48-4.81-0.36-2.81-0.81-5.26-1-5.45-0.11-0.11-0.19 2.09-0.24 5.8-0.06-2.3-0.14-3.74-0.23-4.07-0.34-1.24-1.17-2.25-1.85-2.25-0.67 0-10.86 11.07-22.63 24.61-11.77 13.53-24.21 27.82-27.64 31.75l-2.96 3.38 3.97-4.58c3.98-4.59 16.52-18.99 27.89-32 11.36-13.01 20.44-23.88 20.17-24.15-0.21-0.22-0.82 0.16-2.78 2.11v0.01c-0.72 0.69-1.53 1.51-2.37 2.41q-0.83 0.9-1.64 1.76c-2.55 2.71-6.05 6.49-10.85 11.71-4.3 4.67-7.49 7.66-7.11 6.64 0.77-2.02-1.26-3.96-3.01-2.88-1.68 1.04-4.15 1.16-24.07 1.17-15.41 0.02-19.2-0.25-20.08-1.43-0.74-0.97-1.42-1.11-2.11-0.42-1.37 1.37-3.91-2.62-5.39-8.5-1.15-4.55-2.31-5.75-3.23-3.34-0.14 0.35-0.28-4.03-0.39-11.34zm-132.47 128.68c-12.38 22.17-14.46 26.37-13.6 26.65 0.72 0.24 0.67 1.07-0.13 2.58-0.66 1.22-0.94 2.62-0.64 3.12 0.3 0.49 0.04 1.06-0.59 1.27q-1.14 0.37 0.46 1.98c0.98 0.98 1.39 2.5 1.05 3.95-1.51 6.45-1.57 17.59-0.12 20.43 1.86 3.64 1.47 7.57-1.35 13.61-1.55 3.31-2.95 4.86-4.8 5.32-9.24 2.31-7.8 11.93 2.78 18.65 6.4 4.06 24.05 9.48 33.48 10.28 4.74 0.41 8.46 1.25 9.33 2.12 1.05 1.06 3.97 1.45 10.81 1.45 5.15 0 10.63 0.54 12.17 1.21 1.9 0.82 10.67 1.27 26.94 1.4 22.9 0.18 34.23 1.27 37.06 3.57 1.95 1.57 1.05 5.16-1.91 7.66-2.24 1.89-2.77 3.17-2.77 6.64 0 2.91-0.49 4.49-1.5 4.88-0.82 0.32-1.5 1.23-1.5 2.03 0 0.8-1.16 2.84-2.59 4.53-2.2 2.61-2.35 3.17-1 3.68 0.88 0.34 1.59 1.24 1.59 2.01 0 1.18-11.85 1.39-77 1.39h-77l26.75-0.09c25.19-0.09 26.34-0.17 19.75-1.41-13.05-2.47-25.69-7.96-32.53-14.15-4.28-3.87-10.17-12.89-12.43-19.02-0.52-1.43-0.85-2.08-1.06-1.17 0.22-1.07 0.56-0.5 1.11 0.84 0.91 2.21 1.25 2.58 0.94 1-0.28-1.38-0.55-6.55-0.62-11.5-0.07-5.77-0.34-7.97-0.83-6.72 0.27-0.75 0.59-1.6 0.85-2.28 0.44-1.1 2.03-6.05 3.54-11 2.96-9.69 5.06-13.88 20.03-40 5.35-9.35 13-22.85 17-30 2.38-4.27 5.49-9.84 8.33-14.91zm196.83-109.42c0.94-1.5 0.85-1.84-0.51-1.87-0.91-0.01-2.23 0.43-2.95 1-1.06 0.84-1.06 1.17 0 1.85 1.85 1.17 2.18 1.07 3.46-0.98zm41.17 56.41c4.09-1.62 8.29-3.91 11.83-6.46-2.35 1.79-5.02 3.39-8.07 4.88q-1.74 0.84-3.76 1.58zm-4.04 161.92c0.32-0.2 0.58-1.16 0.78-3.13l-0.07 3.13zm24.45-177.81c1.98-3.42 3.84-7.57 5.17-11.62q-1.2 3.9-2.97 7.59-1.02 2.13-2.2 4.03zm-126.57 150.64q0.1 0.1 0.62 0.18l-0.79-0.01v-0.76q0.08 0.5 0.17 0.59zm87.15-146.12c0.05 2.67 0.1 5.03 0.16 6.98q-0.1-2.81-0.16-6.98zm-35.97 143.36c3.71-1.33 7.16-2.83 9.46-4.14-2.39 1.36-5.82 2.84-9.46 4.14zm36.82-129.58q0.33 0.39 0.91 0.62-0.51-0.15-0.77-0.4-0.06-0.06-0.14-0.22zm37.85-72.63c-2.3-3.16-5.04-6.12-8.14-8.79q-0.21-0.17-0.42-0.35c3.28 2.75 6.15 5.83 8.56 9.14zm-86.87 205.13h-0.11q1.31-0.08 2.31-0.17-0.93 0.09-2.2 0.17zm-3.75 0.17q0.42-0.01 0.82-0.04h0.13q-0.47 0.02-0.95 0.04zm78.83-216.95q-0.38-0.27-0.75-0.54 0.42 0.3 0.84 0.6-0.05-0.03-0.09-0.06zm-295.71 233.24q-0.01 0.03-0.02 0.05 0 0.01-0.01 0.01zm76.63 9.59v-0.01-0.01z"/>
	</g>
</svg>